<svg width="23" height="21" fill="none" xmlns="http://www.w3.org/2000/svg"><path d="M19.535 3.345a4.993 4.993 0 0 0-1.622-1.114 4.884 4.884 0 0 0-3.828 0 4.992 4.992 0 0 0-1.622 1.114l-.963.99-.964-.99A4.934 4.934 0 0 0 7 1.841a4.934 4.934 0 0 0-3.535 1.504A5.209 5.209 0 0 0 2 6.978c0 1.362.527 2.669 1.465 3.632l.963.99 7.072 7.265L18.57 11.6l.964-.99a5.147 5.147 0 0 0 1.084-1.666 5.257 5.257 0 0 0 0-3.932 5.147 5.147 0 0 0-1.084-1.667z" fill="#fff" stroke="#fff" stroke-width="2" stroke-linecap="round" stroke-linejoin="round"/></svg>