<svg width="22" height="22" fill="none" xmlns="http://www.w3.org/2000/svg"><g clip-path="url(#a)"><path d="M8.25 20.167a.917.917 0 1 0 0-1.834.917.917 0 0 0 0 1.834zM18.333 20.167a.917.917 0 1 0 0-1.834.917.917 0 0 0 0 1.834z" stroke="#fff" stroke-width="2" stroke-linecap="round" stroke-linejoin="round"/><path d="M.917.917h3.666L7.04 13.19a1.833 1.833 0 0 0 1.833 1.476h8.91a1.833 1.833 0 0 0 1.834-1.476L21.083 5.5H5.5" fill="#fff"/><path d="M.917.917h3.666L7.04 13.19a1.833 1.833 0 0 0 1.833 1.476h8.91a1.833 1.833 0 0 0 1.834-1.476L21.083 5.5H5.5" stroke="#fff" stroke-width="2" stroke-linecap="round" stroke-linejoin="round"/></g><defs><clipPath id="a"><path fill="#fff" d="M0 0h22v22H0z"/></clipPath></defs></svg>