<svg xmlns="http://www.w3.org/2000/svg" width="141" height="28" fill="none"><path fill="#1E1D1D" stroke="#1E1D1D" stroke-linecap="round" stroke-linejoin="round" stroke-width="2" d="m15.552 4.279 2.487 5.378 5.56.868-4.023 4.184.95 5.91-4.974-2.791-4.973 2.792.95-5.911-4.025-4.184 5.561-.868 2.487-5.378ZM62.228 4l2.486 5.378 5.561.868-4.024 4.184.95 5.91-4.973-2.791-4.974 2.792.95-5.911-4.024-4.184 5.561-.868L62.228 4ZM85.566 4l2.486 5.378 5.561.868-4.024 4.184.95 5.91-4.973-2.791-4.974 2.792.95-5.911-4.024-4.184 5.56-.868L85.567 4ZM108.501 4l2.487 5.378 5.561.868-4.024 4.184.95 5.91-4.974-2.791-4.973 2.792.949-5.911-4.023-4.184 5.56-.868L108.501 4ZM38.89 4l2.487 5.378 5.56.868-4.023 4.184.95 5.91-4.974-2.791-4.974 2.792.95-5.911-4.024-4.184 5.561-.868L38.89 4Z"/></svg>